<svg width="135" height="145" viewBox="0 0 135 145" fill="none" xmlns="http://www.w3.org/2000/svg">
<rect width="135" height="145" rx="12.5581" fill="#F6E9E9"/>
<path d="M67.439 38.6042C38.2166 38.5276 29.1768 53.9383 29.8614 73.2672C30.4163 88.9326 31.1928 109.526 70.4735 106.245C98.9062 103.87 103.396 95.5588 105.183 76.4846C107.746 49.1276 93.1976 38.6716 67.439 38.6042Z" fill="#F5F5F5"/>
<g clip-path="url(#clip0_1_170)">
<path d="M66.2168 86.2769H68.0327C78.1212 86.2769 84.9208 79.4773 84.9208 68.9247V64.8288C84.9208 60.0267 77.7379 56.758 67.1247 56.758C56.5116 56.758 49.3286 60.0267 49.3286 64.8288V68.9247C49.3286 79.1141 56.1082 86.2769 66.2168 86.2769ZM67.1247 69.752C58.6908 69.752 52.4763 67.6132 52.4763 64.8288C52.4763 62.0646 58.6908 59.9056 67.1247 59.9056C75.5789 59.9056 81.7934 62.0646 81.7934 64.8288C81.7934 67.6132 75.5789 69.752 67.1247 69.752ZM82.7418 77.3587H84.3357C88.8352 77.3587 91.5388 74.998 91.5388 71.0836C91.5388 67.1895 88.815 64.8086 84.3357 64.8086H83.0443V67.9361H84.3357C86.8982 67.9361 88.3913 69.1063 88.3913 71.0836C88.3913 73.0408 86.8982 74.2313 84.3357 74.2313H82.7418V77.3587ZM67.0239 95.9417C82.3584 95.9417 93.2338 91.5835 93.2338 85.2479C93.2338 82.7863 91.5591 80.6273 88.6132 78.8922C87.4026 79.3966 86.071 79.6791 84.5577 79.7194C81.3495 85.3084 75.4781 88.6377 68.0327 88.6377H66.2168C57.924 88.6377 51.4472 84.239 48.5619 77.3587C43.6589 79.2554 40.814 81.9995 40.814 85.2479C40.814 91.5835 51.7095 95.9417 67.0239 95.9417Z" fill="#F6E9E9"/>
</g>
<defs>
<clipPath id="clip0_1_170">
<rect width="52.4199" height="36.9507" fill="white" transform="translate(40.814 53.3842)"/>
</clipPath>
</defs>
</svg>
