<svg width="36" height="60" viewBox="0 0 36 60" fill="none" xmlns="http://www.w3.org/2000/svg">
<path d="M29.6839 42.2865C36.4753 46.2501 36.4727 52.6767 29.6839 56.6428C22.8951 60.609 11.884 60.6064 5.09258 56.6428C-1.69882 52.6792 -1.69623 46.2501 5.09258 42.2865C11.8814 38.3229 22.8925 38.3177 29.6839 42.2865Z" fill="#E0E0E0"/>
<path d="M31.596 4.654C31.4918 4.46658 31.3386 4.311 31.1529 4.20387L25.0745 0.713658C24.547 0.409473 23.281 0.822672 23.281 1.67896V5.19555C23.2811 5.40497 23.3364 5.61067 23.4413 5.79189C23.5463 5.9731 23.6972 6.12342 23.8788 6.22767L28.5735 8.90907L27.7629 8.44664L28.1515 9.54909C28.1571 9.565 28.1687 9.57811 28.1837 9.58566C28.1988 9.5932 28.2163 9.59459 28.2324 9.58953C28.3009 9.5526 28.6069 9.38908 28.781 9.27479H28.7933C28.7933 9.27479 28.8056 9.27479 28.8091 9.26073L28.904 9.106L29.959 9.70909C30.1344 9.8186 30.3357 9.87978 30.5424 9.88643C30.749 9.89307 30.9538 9.84495 31.1359 9.74695C31.318 9.64894 31.4709 9.50453 31.5792 9.32836C31.6875 9.15218 31.7473 8.95051 31.7525 8.74379V5.23423C31.7514 5.03054 31.6974 4.83063 31.596 4.654Z" fill="#6C9FF5"/>
<path opacity="0.2" d="M28.8089 9.24433C28.8089 9.24433 28.7983 9.24433 28.793 9.2584H28.7807C28.6049 9.37268 28.3007 9.5362 28.2321 9.57313C28.24 9.57156 28.2475 9.56842 28.2542 9.56389C28.2608 9.55935 28.2665 9.55353 28.2708 9.54676L28.6471 8.93487L28.5733 8.89267L28.9038 9.08257L28.8089 9.24433Z" fill="white"/>
<path opacity="0.4" d="M30.4179 5.32596C30.3426 5.17206 30.2346 5.03645 30.1014 4.92859C30.0558 4.89239 30.0076 4.85949 29.9573 4.83012L23.8736 1.33991C23.8134 1.30539 23.7453 1.28729 23.6759 1.28741C23.6066 1.28754 23.5385 1.30588 23.4785 1.34061C23.4185 1.37533 23.3686 1.42522 23.334 1.48528C23.2993 1.54533 23.2811 1.61344 23.281 1.68278C23.281 0.826488 24.5417 0.413288 25.0745 0.717473L31.1582 4.20769C31.3439 4.31481 31.4971 4.4704 31.6013 4.65781L30.4179 5.32596Z" fill="white"/>
<path opacity="0.2" d="M30.5494 9.36163V5.85911C30.55 5.81206 30.5471 5.76504 30.5406 5.71844C30.5221 5.58148 30.4798 5.44879 30.4157 5.32634L31.5973 4.65643C31.6982 4.83323 31.7515 5.03314 31.7521 5.23667V8.73216C31.7468 8.93888 31.6871 9.14055 31.5788 9.31673C31.4705 9.4929 31.3176 9.63731 31.1355 9.73532C30.9534 9.83332 30.7486 9.88144 30.5419 9.87479C30.3353 9.86815 30.134 9.80697 29.9586 9.69746C30.0181 9.73182 30.0855 9.75001 30.1542 9.75025C30.2229 9.75048 30.2905 9.73274 30.3502 9.69879C30.4099 9.66484 30.4597 9.61587 30.4947 9.55672C30.5296 9.49757 30.5485 9.43032 30.5494 9.36163Z" fill="white"/>
<path d="M28.4885 4.87682C28.5987 4.94543 28.6895 5.04106 28.7523 5.15463C28.8964 5.40607 28.8964 5.68212 28.7523 5.75772L26.7197 6.91644C26.6773 6.93589 26.6306 6.94371 26.5842 6.93907C26.5378 6.93443 26.4936 6.91752 26.4559 6.89007C26.3463 6.82208 26.2561 6.72701 26.1939 6.61401L25.5117 5.42541C25.3658 5.17397 25.3675 4.89792 25.5117 4.82055C25.5538 4.80143 25.6002 4.7938 25.6463 4.79844C25.6923 4.80307 25.7362 4.8198 25.7737 4.84693C25.8839 4.91554 25.9746 5.01117 26.0374 5.12474L26.4577 5.8597L28.2265 4.85045C28.2687 4.83168 28.3151 4.82424 28.361 4.82887C28.407 4.83349 28.4509 4.85002 28.4885 4.87682Z" fill="white"/>
<path d="M13.8161 26.0766C12.1176 27.2546 10.2063 28.0705 8.78912 29.6512C6.15168 32.6016 6.08135 37.3508 8.15965 40.7284C10.238 44.1061 14.1062 46.1317 18.043 46.5959C22.1733 47.0829 26.5092 45.9418 29.7498 43.3342C32.9903 40.7267 35.0528 36.6527 35.051 32.4926C35.0492 28.3325 32.92 24.1917 29.435 21.92C26.256 19.8469 21.6985 19.2544 18.5002 21.6263C16.8878 22.8255 15.8118 24.5961 14.2047 25.7988C14.0763 25.892 13.9462 25.9851 13.8161 26.0766Z" fill="#6C9FF5"/>
<path opacity="0.2" d="M13.8161 26.0766C12.1176 27.2546 10.2063 28.0705 8.78912 29.6512C6.15168 32.6016 6.08135 37.3508 8.15965 40.7284C10.238 44.1061 14.1062 46.1317 18.043 46.5959C22.1733 47.0829 26.5092 45.9418 29.7498 43.3342C32.9903 40.7267 35.0528 36.6527 35.051 32.4926C35.0492 28.3325 32.92 24.1917 29.435 21.92C26.256 19.8469 21.6985 19.2544 18.5002 21.6263C16.8878 22.8255 15.8118 24.5961 14.2047 25.7988C14.0763 25.892 13.9462 25.9851 13.8161 26.0766Z" fill="black"/>
<path opacity="0.1" d="M13.8161 26.0766C12.1176 27.2546 10.2063 28.0705 8.78912 29.6512C6.15168 32.6016 6.08135 37.3508 8.15965 40.7284C10.238 44.1061 14.1062 46.1317 18.043 46.5959C22.1733 47.0829 26.5092 45.9418 29.7498 43.3342C32.9903 40.7267 35.0528 36.6527 35.051 32.4926C35.0492 28.3325 32.92 24.1917 29.435 21.92C26.256 19.8469 21.6985 19.2544 18.5002 21.6263C16.8878 22.8255 15.8118 24.5961 14.2047 25.7988C14.0763 25.892 13.9462 25.9851 13.8161 26.0766Z" fill="white"/>
<path d="M32.8283 31.9237C32.7738 29.0526 31.7035 26.2936 29.8075 24.1369C27.9115 21.9801 25.3125 20.5651 22.472 20.1432C22.0776 20.1822 21.6864 20.248 21.3009 20.3401C24.2886 20.4991 27.1052 21.7833 29.1844 23.9346C31.2636 26.086 32.4512 28.9447 32.5083 31.936C32.5839 35.8043 30.6902 39.7534 27.4427 42.4858C24.8966 44.6327 21.5154 46.0551 17.8002 46.5668L18.0375 46.5985C18.3716 46.6371 18.7069 46.6653 19.0433 46.6829C22.3454 46.0428 25.3345 44.6819 27.6484 42.7302C30.9698 39.9292 32.9057 35.8904 32.8283 31.9237Z" fill="white"/>
<path opacity="0.1" d="M14.5035 43.3665C14.5035 43.3384 14.5035 43.3103 14.5158 43.2821C14.6557 42.3621 15.0798 41.5088 15.7286 40.8417C16.3774 40.1746 17.2186 39.727 18.1344 39.5616C19.7725 39.2474 21.3422 38.6462 22.771 37.7857C23.7856 37.1721 24.7421 36.4213 25.8797 36.089C26.9832 35.7737 28.1611 35.8425 29.2204 36.2841C28.2657 35.2801 26.6287 34.8388 25.3188 35.2925C26.2261 33.9069 27.0226 32.4124 27.3338 30.7859C27.645 29.1595 27.4252 27.3749 26.4441 26.0385C26.026 25.4695 25.487 25.0002 24.8657 24.6645C24.2445 24.3288 23.5565 24.1351 22.8514 24.0972C22.1463 24.0594 21.4415 24.1784 20.7879 24.4457C20.1343 24.713 19.5481 25.1219 19.0716 25.6429C18.101 26.7067 17.5524 28.2012 16.9141 29.4918C16.457 30.4185 15.9822 31.3679 15.2279 32.0748C14.0886 33.1403 12.4481 33.5254 11.2665 34.5364C9.92844 35.6933 9.34996 37.5413 9.34293 39.3119C9.36556 40.506 9.53985 41.6924 9.86162 42.8426C11.2475 44.1639 12.8997 45.174 14.7075 45.8053C14.4488 45.0197 14.3789 44.1842 14.5035 43.3665Z" fill="black"/>
<path d="M10.1719 42.0776C10.2945 42.7154 10.3639 43.3624 10.3794 44.0117L10.8383 43.8359C11.0556 43.7542 11.2921 43.7382 11.5184 43.7898C11.7447 43.8414 11.9508 43.9583 12.1113 44.126L12.1342 44.1488C12.216 44.2349 12.3278 44.286 12.4464 44.2916C12.565 44.2972 12.6812 44.2567 12.7707 44.1787C12.8184 44.1367 12.857 44.0854 12.8842 44.028C12.9114 43.9706 12.9266 43.9082 12.9289 43.8447L12.9905 41.8947L10.1719 42.0776Z" fill="#FFA8A7"/>
<path d="M11.9477 49.3303C10.9982 50.3466 9.24694 51.2363 7.97394 50.3677L8.11636 50.693C9.38936 51.5598 11.1406 50.6701 12.0919 49.6539C13.0431 48.6376 12.4259 47.9307 13.2805 47.0287C13.6037 46.7202 13.8562 46.3452 14.0207 45.9298C13.982 45.8331 13.9469 45.7065 13.9011 45.5605C13.7164 45.9842 13.4581 46.3717 13.138 46.7052C12.2818 47.6072 12.8989 48.3123 11.9477 49.3303Z" fill="#263238"/>
<path d="M13.4359 44.4961C13.2887 44.288 13.1869 44.0514 13.137 43.8016C13.1278 43.7436 13.1062 43.6883 13.0738 43.6395C13.0413 43.5906 12.9987 43.5494 12.9488 43.5185L12.9383 43.8455C12.936 43.909 12.9208 43.9714 12.8935 44.0289C12.8663 44.0863 12.8277 44.1376 12.78 44.1796C12.6905 44.2576 12.5744 44.298 12.4558 44.2924C12.3372 44.2869 12.2253 44.2357 12.1435 44.1497L12.1207 44.1269C11.9602 43.9591 11.754 43.8422 11.5277 43.7907C11.3014 43.7391 11.0649 43.7551 10.8477 43.8367L10.3817 44.0126C10.3117 44.0378 10.2516 44.0846 10.2099 44.1462C10.1681 44.2078 10.1471 44.2811 10.1496 44.3554C10.1795 45.6882 9.55707 47.4606 8.90298 48.4347C8.23131 48.7125 7.65108 49.6286 7.94647 50.2985L7.97636 50.3653C9.24936 51.2339 11.0006 50.3442 11.9501 49.3279C12.8996 48.3116 12.2842 47.6048 13.1405 46.7028C13.4605 46.3693 13.7188 45.9817 13.9036 45.5581C13.7977 45.1841 13.6403 44.8267 13.4359 44.4961Z" fill="#37474F"/>
<path d="M11.5681 46.4197C11.6063 46.4395 11.6509 46.4433 11.6919 46.4303C11.733 46.4173 11.7672 46.3885 11.787 46.3503C11.8068 46.312 11.8106 46.2675 11.7976 46.2264C11.7846 46.1854 11.7558 46.1512 11.7176 46.1314C11.4388 45.974 11.1242 45.8914 10.8041 45.8914C10.4841 45.8914 10.1694 45.974 9.89068 46.1314C9.86255 46.2368 9.8309 46.3423 9.79926 46.4461C10.0666 46.289 10.3701 46.204 10.6802 46.1994C10.9902 46.1947 11.2962 46.2707 11.5681 46.4197Z" fill="white"/>
<path d="M11.8151 45.7011C11.8534 45.7194 11.8973 45.7219 11.9374 45.7081C11.9776 45.6942 12.0106 45.6652 12.0296 45.6272C12.0394 45.6089 12.0455 45.5888 12.0476 45.568C12.0497 45.5473 12.0476 45.5264 12.0416 45.5065C12.0355 45.4865 12.0256 45.468 12.0124 45.4519C11.9992 45.4358 11.9829 45.4225 11.9645 45.4127C11.6728 45.2529 11.345 45.1703 11.0123 45.1727C10.6797 45.1752 10.3532 45.2626 10.0638 45.4268C10.0445 45.5358 10.0216 45.6448 9.99698 45.7538C10.5526 45.4619 11.1117 45.3441 11.8151 45.7011Z" fill="white"/>
<path d="M11.3118 47.1371C11.3502 47.1556 11.3942 47.1584 11.4346 47.1449C11.475 47.1314 11.5085 47.1028 11.5281 47.065C11.5379 47.0464 11.544 47.026 11.546 47.0051C11.5479 46.9842 11.5457 46.9631 11.5395 46.943C11.5333 46.9229 11.5232 46.9042 11.5098 46.8881C11.4964 46.8719 11.4799 46.8585 11.4613 46.8487C11.1892 46.6953 10.8827 46.6133 10.5703 46.6102C10.258 46.6071 9.94995 46.6831 9.67488 46.8311C9.63444 46.9436 9.59048 47.0544 9.54828 47.1634C9.81483 47.0068 10.1175 46.922 10.4266 46.9174C10.7357 46.9128 11.0407 46.9885 11.3118 47.1371Z" fill="white"/>
<path d="M8.90298 48.4342C8.23131 48.712 7.65108 49.6281 7.94647 50.298L7.97636 50.3648C9.23002 51.2211 10.9461 50.3648 11.9061 49.3714C11.1044 47.8012 9.43047 48.1933 8.90298 48.4342Z" fill="white"/>
<path d="M11.0375 47.8413C11.0761 47.8596 11.1203 47.8622 11.1607 47.8484C11.2011 47.8346 11.2345 47.8055 11.2538 47.7674C11.2636 47.749 11.2696 47.7288 11.2716 47.708C11.2735 47.6872 11.2713 47.6662 11.2651 47.6463C11.2589 47.6263 11.2488 47.6078 11.2354 47.5918C11.222 47.5758 11.2055 47.5626 11.187 47.5529C10.9144 47.3991 10.6073 47.3168 10.2943 47.3137C9.98129 47.3106 9.67261 47.3869 9.39705 47.5353C9.33903 47.6602 9.281 47.7797 9.22122 47.887C9.78563 47.6022 10.3342 47.4843 11.0375 47.8413Z" fill="white"/>
<path d="M8.17509 45.9522C8.02988 46.5845 7.83287 47.2038 7.58606 47.8037L8.07487 47.8301C8.30779 47.8419 8.53208 47.9221 8.7197 48.0606C8.90733 48.1991 9.04998 48.3899 9.12984 48.609L9.14039 48.6407C9.18074 48.7524 9.26272 48.8443 9.36921 48.8971C9.47571 48.9498 9.59847 48.9594 9.71184 48.9237C9.77248 48.9049 9.82859 48.8738 9.87669 48.8324C9.92479 48.7909 9.96384 48.74 9.99141 48.6829L10.8336 46.9246L8.17509 45.9522Z" fill="#FFA8A7"/>
<path d="M6.86623 53.3071C5.58619 53.854 3.62394 53.9595 2.80984 52.653V53.0047C3.62394 54.3129 5.58619 54.2056 6.86623 53.6588C8.14627 53.112 7.8667 52.217 9.01311 51.737C9.43333 51.5861 9.81599 51.3462 10.1349 51.0337C10.1349 50.9299 10.156 50.7998 10.1736 50.6486C9.83398 50.9621 9.44094 51.2122 9.01311 51.3871C7.8667 51.8565 8.14627 52.7515 6.86623 53.3071Z" fill="#263238"/>
<path d="M10.1789 49.4769C10.127 49.2282 10.127 48.9714 10.1789 48.7226C10.1959 48.6663 10.2005 48.6069 10.1923 48.5486C10.1841 48.4903 10.1633 48.4345 10.1314 48.385L9.99072 48.6804C9.95125 48.7623 9.88851 48.8308 9.81034 48.8772C9.73217 48.9237 9.64204 48.9461 9.55122 48.9416C9.4604 48.9371 9.37292 48.9059 9.29973 48.8519C9.22654 48.798 9.17088 48.7236 9.13971 48.6382L9.12916 48.6066C9.04929 48.3874 8.90664 48.1967 8.71901 48.0582C8.53139 47.9196 8.30711 47.8395 8.07418 47.8276L7.57658 47.8013C7.50224 47.7959 7.42811 47.8143 7.36491 47.8538C7.3017 47.8933 7.25268 47.9519 7.22492 48.0211C6.71326 49.2519 5.42794 50.6233 4.43802 51.2493C3.71185 51.2335 2.80984 51.8366 2.80984 52.5698V52.6436C3.62394 53.95 5.58619 53.8445 6.86623 53.2977C8.14627 52.7509 7.8667 51.8559 9.01311 51.3759C9.44094 51.201 9.83398 50.9509 10.1736 50.6374C10.2303 50.2528 10.2321 49.862 10.1789 49.4769Z" fill="#37474F"/>
<path d="M7.70838 50.5001C7.73543 50.5337 7.7747 50.5551 7.81757 50.5597C7.86044 50.5643 7.90338 50.5518 7.93696 50.5247C7.97053 50.4977 7.99199 50.4584 7.99661 50.4155C8.00122 50.3726 7.98862 50.3297 7.96157 50.2961C7.76974 50.0401 7.51496 49.838 7.22196 49.7096C6.92896 49.5811 6.60772 49.5306 6.28944 49.5629C6.22086 49.6473 6.15229 49.73 6.0802 49.8126C6.3879 49.7763 6.69974 49.8206 6.98516 49.9411C7.27059 50.0616 7.5198 50.2543 7.70838 50.5001Z" fill="white"/>
<path d="M8.21335 49.9284C8.24123 49.9605 8.2805 49.9804 8.32284 49.984C8.36517 49.9877 8.40725 49.9746 8.44016 49.9478C8.47266 49.9212 8.49357 49.8831 8.49849 49.8414C8.50342 49.7998 8.49196 49.7578 8.46654 49.7245C8.264 49.4603 7.99725 49.2523 7.69165 49.1202C7.38605 48.9882 7.05175 48.9365 6.72055 48.9701C6.65901 49.0616 6.59572 49.146 6.5289 49.2444C7.14958 49.2005 7.71223 49.3183 8.21335 49.9284Z" fill="white"/>
<path d="M7.17421 51.0396C7.20103 51.0732 7.24008 51.0948 7.28278 51.0995C7.32548 51.1043 7.36834 51.0919 7.40191 51.0651C7.43549 51.0383 7.45704 50.9993 7.46182 50.9566C7.4666 50.9139 7.45422 50.871 7.42741 50.8374C7.24032 50.587 6.99293 50.388 6.70826 50.2589C6.42358 50.1298 6.11087 50.0747 5.79923 50.099C5.71659 50.1869 5.6234 50.2748 5.54779 50.3521C5.85516 50.3167 6.16648 50.3614 6.45147 50.4819C6.73646 50.6023 6.98545 50.7945 7.17421 51.0396Z" fill="white"/>
<path d="M4.43802 51.2573C3.71185 51.2415 2.80984 51.8446 2.80984 52.5778V52.6517C3.61163 53.9387 5.52641 53.8543 6.80821 53.3286C6.70798 51.5685 5.02705 51.2503 4.43802 51.2573Z" fill="white"/>
<path d="M6.63904 51.5664C6.66757 51.5948 6.70561 51.6118 6.74586 51.6139C6.78611 51.616 6.82574 51.6032 6.85713 51.578C6.88852 51.5527 6.90947 51.5167 6.91595 51.4769C6.92242 51.4371 6.91398 51.3963 6.89223 51.3624C6.70432 51.1116 6.45602 50.9123 6.17042 50.7832C5.88483 50.6541 5.57123 50.5993 5.25878 50.6239C5.1568 50.7153 5.05481 50.7997 4.95459 50.8824C5.58054 50.8437 6.13792 50.9562 6.63904 51.5664Z" fill="white"/>
<path d="M15.699 29.3001L9.28998 32.8712C8.70789 33.194 8.24195 33.6915 7.95799 34.2935C7.67403 34.8955 7.58641 35.5715 7.70752 36.226L8.95063 42.9269L7.93082 46.1692C8.80997 47.349 10.832 47.4088 10.832 47.4088C11.9591 45.1476 12.7855 44.1876 13.4272 42.2939C14.069 40.4002 14.4945 39.092 14.4945 39.092L19.8169 37.6362C21.0347 37.3062 22.1254 36.6183 22.9479 35.6616C23.7705 34.7049 24.287 33.5234 24.4307 32.2699C24.5221 31.4646 24.5256 30.9142 24.5256 30.9142L15.699 29.3001Z" fill="#455A64"/>
<path opacity="0.2" d="M15.7538 31.0988C15.7504 31.8131 15.9995 32.5056 16.4571 33.054L11.933 35.8849C11.2694 36.3005 10.778 36.9417 10.5493 37.6906L8.94745 42.9251L10.391 37.0946C10.5576 36.4242 10.9798 35.8455 11.5673 35.4822L15.7538 32.901C15.3248 31.8338 15.7538 31.0988 15.7538 31.0988Z" fill="black"/>
<path d="M11.7538 23.1804C12.4062 24.9387 14.6269 24.4833 14.6269 24.4833C14.7394 22.1272 11.7538 23.1804 11.7538 23.1804Z" fill="#6C9FF5"/>
<path opacity="0.3" d="M11.7538 23.1804C12.4062 24.9387 14.6269 24.4833 14.6269 24.4833C14.7394 22.1272 11.7538 23.1804 11.7538 23.1804Z" fill="black"/>
<path d="M16.3883 18.2836H16.223C15.1153 18.2959 13.7139 19.0502 13.03 20.9826L10.3697 26.1344L13.4062 27.4813L15.0678 22.6178L16.3883 18.2836Z" fill="#FFA8A7"/>
<path opacity="0.2" d="M14.2674 21.6993C14.0546 22.3077 14.0423 22.9635 14.0089 23.6071C13.9755 24.2506 13.8999 25.0278 13.6063 25.601C13.2816 25.3763 12.8929 25.2628 12.4983 25.2774C12.1037 25.2919 11.7244 25.4338 11.4172 25.6819C11.1967 25.8664 11.0273 26.1043 10.9249 26.3729L13.4181 27.4788L15.0797 22.6154L15.8973 19.934C15.522 20.1052 15.1845 20.3495 14.9047 20.6526C14.6248 20.9557 14.4082 21.3115 14.2674 21.6993Z" fill="black"/>
<path d="M13.4398 26.5526C13.3239 26.2656 13.1366 26.013 12.8957 25.8188C12.6547 25.6246 12.3681 25.4953 12.063 25.4431C11.7458 25.4102 11.4254 25.4562 11.1303 25.577C10.8352 25.6979 10.5745 25.8899 10.3715 26.1358C10.041 26.5367 10.092 27.0783 10.3012 27.553C10.4733 27.9258 10.7704 28.2265 11.141 28.4031C11.5116 28.5798 11.9324 28.6211 12.3303 28.5201C13.118 28.295 13.7352 27.3121 13.4398 26.5526Z" fill="#FFA8A7"/>
<path d="M16.3905 18.2836C15.0682 18.1376 13.4014 18.7478 11.7538 23.1857C13.899 23.2402 14.6269 24.4886 14.6269 24.4886C15.5957 22.027 16.6876 18.5948 16.6876 18.5948L16.3905 18.2836Z" fill="#6C9FF5"/>
<path opacity="0.1" d="M16.3905 18.2836C15.0682 18.1376 13.4014 18.7478 11.7538 23.1857C13.899 23.2402 14.6269 24.4886 14.6269 24.4886C15.5957 22.027 16.6876 18.5948 16.6876 18.5948L16.3905 18.2836Z" fill="white"/>
<path d="M24.635 31.4122C23.4974 32.5041 18.0362 32.7045 15.2493 30.0512C15.5165 28.1786 15.4251 26.1724 15.2493 24.1891C15.0734 22.2057 13.9112 18.7384 16.1284 18.3304C19.0859 17.752 20.5804 18.283 22.9858 18.9124C25.1028 22.4273 24.8144 27.6881 24.635 31.4122Z" fill="#6C9FF5"/>
<path opacity="0.2" d="M24.635 31.4122C23.4974 32.5041 18.0362 32.7045 15.2493 30.0512C15.5165 28.1786 15.4251 26.1724 15.2493 24.1891C15.0734 22.2057 13.9112 18.7384 16.1284 18.3304C19.0859 17.752 20.5804 18.283 22.9858 18.9124C25.1028 22.4273 24.8144 27.6881 24.635 31.4122Z" fill="white"/>
<path d="M14.6837 15.2528C14.1933 15.0153 13.8089 14.6037 13.6055 14.0983C13.402 13.5928 13.394 13.0297 13.5831 12.5187C13.3195 12.4526 13.0864 12.2988 12.9219 12.0826C12.8497 11.9769 12.811 11.8518 12.811 11.7238C12.811 11.5957 12.8495 11.4706 12.9217 11.3649C12.9939 11.2591 13.0963 11.1775 13.2155 11.1309C13.3348 11.0842 13.4653 11.0746 13.5901 11.1032C13.4933 10.928 13.458 10.7254 13.4898 10.5278C13.5217 10.3302 13.6189 10.149 13.7659 10.0131C13.9164 9.88982 14.105 9.82246 14.2996 9.82246C14.4941 9.82246 14.6827 9.88982 14.8332 10.0131C14.8084 9.8924 14.8231 9.76693 14.875 9.65518C14.9269 9.54344 15.0133 9.45132 15.1216 9.39242C15.3481 9.28823 15.6021 9.25987 15.846 9.31154C16.0904 9.35022 16.3278 9.42759 16.5722 9.45924C16.9897 9.48993 17.4094 9.47045 17.8223 9.40121C18.2352 9.33423 18.6584 9.37171 19.0531 9.51023C19.4382 9.67199 19.8356 10.1415 19.7283 10.625C19.7729 10.5382 19.8355 10.462 19.9119 10.4013C19.9883 10.3407 20.0768 10.2971 20.1714 10.2733C20.2653 10.2546 20.3622 10.2561 20.4556 10.2776C20.5489 10.2991 20.6366 10.3402 20.7129 10.3982C20.4826 10.6039 20.2646 10.8184 20.036 11.0224C20.2734 10.8606 20.6918 10.9749 20.8747 11.1982C21.0407 11.4351 21.1387 11.713 21.1578 12.0017C21.3128 13.0861 21.3086 14.1872 21.1455 15.2704C21.0628 15.8295 20.8448 16.5469 20.3859 16.8792L14.6837 15.2528Z" fill="#37474F"/>
<path d="M17.4162 17.3162L17.5322 18.5998C17.5377 18.6995 17.5119 18.7985 17.4584 18.8829C17.3875 19.0168 17.3604 19.1696 17.3809 19.3197C17.4014 19.4699 17.4685 19.6098 17.5727 19.7198C17.7379 19.8446 17.9389 19.913 18.1459 19.915C18.5367 19.9355 18.9275 19.8733 19.2926 19.7324C19.6577 19.5915 19.9889 19.3751 20.2646 19.0974C20.3218 19.0396 20.3669 18.9709 20.3971 18.8954C20.4273 18.8199 20.442 18.7391 20.4405 18.6578L20.3561 15.405L17.4162 17.3162Z" fill="#FFA8A7"/>
<path opacity="0.3" d="M20.3451 15.405L17.4123 17.3162L17.5143 18.4538C18.1367 18.3079 18.7609 18.1286 19.2532 17.7294C19.8792 17.2195 20.4295 16.7167 20.3451 15.405Z" fill="black"/>
<path d="M14.0811 12.6776C14.1463 14.1768 14.5047 15.6487 15.1361 17.01C15.2651 17.3117 15.4355 17.594 15.6425 17.8487C15.8516 18.1049 16.1408 18.2832 16.4636 18.3551C16.8592 18.4289 17.2601 18.29 17.6399 18.1529C18.3327 17.9015 19.0465 17.6395 19.5969 17.1559C20.1472 16.6724 20.527 15.904 20.3389 15.1919C20.5347 15.2706 20.7471 15.2988 20.9567 15.2739C21.1662 15.249 21.3661 15.1718 21.538 15.0495C21.704 14.9169 21.8343 14.7451 21.9172 14.5496C22.0001 14.354 22.0329 14.1409 22.0128 13.9295C21.9688 13.5198 21.6611 13.1083 21.2444 13.0978C21.1181 13.102 20.9942 13.1331 20.8808 13.1889C20.7675 13.2446 20.6672 13.3239 20.5868 13.4213C20.4286 13.6181 20.2996 13.8366 20.2035 14.0701C20.1596 14.1821 20.0931 14.2838 20.0083 14.369C19.965 14.4107 19.91 14.4382 19.8506 14.4479C19.7913 14.4576 19.7304 14.4491 19.676 14.4235C19.625 14.3805 19.5844 14.3265 19.557 14.2657C19.5296 14.2048 19.5162 14.1386 19.5178 14.0719L19.4 13.147C19.3903 13.076 19.3602 13.0093 19.3134 12.955C19.2666 12.9007 19.205 12.8611 19.1362 12.8411C18.9291 12.7704 18.754 12.6282 18.6421 12.4402C18.546 12.2756 18.4743 12.0979 18.4294 11.9127C18.4207 11.8777 18.4038 11.8452 18.3802 11.8179C18.3566 11.7907 18.3268 11.7694 18.2933 11.7559C18.2599 11.7423 18.2237 11.7369 18.1878 11.74C18.1518 11.7431 18.1171 11.7547 18.0865 11.7738C16.9383 12.4894 15.4051 12.7813 14.0811 12.6776Z" fill="#FFA8A7"/>
<path d="M16.4943 14.5493L15.914 16.0826L16.9286 16.0949L16.4943 14.5493Z" fill="#F28F8F"/>
<path d="M17.9518 16.4013L17.2678 16.8954C17.3468 16.9693 17.4477 17.0154 17.5552 17.0268C17.6628 17.0382 17.7711 17.0143 17.8639 16.9587C17.9401 16.8899 17.9905 16.797 18.0065 16.6955C18.0225 16.5941 18.0032 16.4902 17.9518 16.4013Z" fill="#F28F8F"/>
<path opacity="0.3" d="M17.9518 16.4013L17.2678 16.8954C17.3468 16.9693 17.4477 17.0154 17.5552 17.0268C17.6628 17.0382 17.7711 17.0143 17.8639 16.9587C17.9401 16.8899 17.9905 16.797 18.0065 16.6955C18.0225 16.5941 18.0032 16.4902 17.9518 16.4013Z" fill="black"/>
<path d="M17.6199 17.0281C17.7098 17.0303 17.7983 17.0065 17.8749 16.9596C17.9363 16.9087 17.9814 16.8409 18.0045 16.7646C18.0277 16.6883 18.0278 16.6069 18.005 16.5305C17.8893 16.5484 17.7849 16.61 17.7133 16.7026C17.6416 16.7951 17.6082 16.9117 17.6199 17.0281Z" fill="#F28F8F"/>
<path d="M17.9291 14.351C17.9445 14.4056 17.9433 14.4636 17.9257 14.5176C17.9081 14.5715 17.8749 14.619 17.8302 14.6541C17.7856 14.6892 17.7315 14.7102 17.6749 14.7144C17.6183 14.7187 17.5617 14.7061 17.5123 14.6782C17.4629 14.6503 17.4228 14.6083 17.3973 14.5576C17.3718 14.5069 17.3619 14.4497 17.3688 14.3934C17.3758 14.3371 17.3994 14.2841 17.4365 14.2411C17.4737 14.1982 17.5227 14.1673 17.5775 14.1523C17.6504 14.1327 17.7281 14.1426 17.7939 14.1798C17.8597 14.2169 17.9082 14.2784 17.9291 14.351Z" fill="#263238"/>
<path d="M15.5794 14.9156C15.5896 14.9516 15.5926 14.9893 15.5882 15.0265C15.5838 15.0636 15.5722 15.0996 15.5539 15.1322C15.5356 15.1649 15.511 15.1936 15.4816 15.2168C15.4522 15.24 15.4185 15.2571 15.3825 15.2673C15.3279 15.283 15.2699 15.2821 15.2158 15.2648C15.1616 15.2475 15.1139 15.2145 15.0786 15.1699C15.0433 15.1254 15.022 15.0714 15.0175 15.0148C15.0129 14.9581 15.0253 14.9014 15.0531 14.8518C15.0809 14.8023 15.1228 14.762 15.1734 14.7363C15.2241 14.7106 15.2812 14.7005 15.3377 14.7073C15.3941 14.7142 15.4472 14.7376 15.4902 14.7747C15.5333 14.8118 15.5643 14.8608 15.5794 14.9156Z" fill="#263238"/>
<path d="M14.9964 13.8896L14.504 14.4839C14.4565 14.4156 14.431 14.3342 14.431 14.251C14.431 14.1677 14.4565 14.0864 14.504 14.018C14.5663 13.9533 14.6452 13.9071 14.7321 13.8844C14.819 13.8618 14.9104 13.8636 14.9964 13.8896Z" fill="#263238"/>
<path d="M17.3591 13.1965L18.0905 13.4479C18.0957 13.3648 18.0754 13.2821 18.0324 13.2108C17.9893 13.1395 17.9256 13.083 17.8496 13.0488C17.7622 13.0252 17.67 13.0265 17.5833 13.0526C17.4966 13.0787 17.4189 13.1286 17.3591 13.1965Z" fill="#263238"/>
<path opacity="0.15" d="M16.5798 31.2791C16.5798 31.2791 16.5798 31.2791 16.5798 31.2685C16.5798 31.258 16.5798 31.2685 16.5798 31.2597C16.5798 31.2509 16.5798 31.2597 16.5798 31.2492C16.5791 31.2457 16.5791 31.2421 16.5798 31.2386V31.2281L14.5912 27.5356L14.2941 27.817L16.2897 31.5199C16.3023 31.5405 16.3113 31.5631 16.3161 31.5868C16.3177 31.5937 16.3177 31.601 16.3162 31.6079C16.3146 31.6149 16.3116 31.6215 16.3073 31.6272L16.5798 31.316C16.5808 31.3113 16.5808 31.3066 16.5798 31.3019C16.5807 31.2973 16.5807 31.2925 16.5798 31.2878C16.5798 31.2878 16.5798 31.2826 16.5798 31.2791Z" fill="white"/>
<path opacity="0.2" d="M14.5591 27.4933V27.481V27.4704C14.5587 27.4663 14.5587 27.4622 14.5591 27.4581L14.5503 27.4476L14.5415 27.4353L14.5327 27.423V27.4106L14.5239 27.4001L14.5151 27.3895V27.3808L14.4852 27.3544H14.4747H14.4659H14.4553H14.443H14.4307L14.4166 27.3456L12.1309 26.0603H12.1186H12.1045H12.0922H12.0799H12.0676H12.0553H12.0447H12.0324H12.0201H11.9779C11.9714 26.0598 11.9648 26.0609 11.9587 26.0633C11.9526 26.0658 11.9472 26.0695 11.9427 26.0743L11.6702 26.3856C11.6795 26.3783 11.6906 26.3736 11.7023 26.3717C11.7139 26.3699 11.7259 26.371 11.737 26.375C11.7808 26.3869 11.8228 26.4047 11.8618 26.4278L14.1476 27.7131C14.1898 27.7377 14.2338 27.7676 14.2777 27.7992C14.3213 27.8326 14.363 27.8684 14.4026 27.9065C14.4406 27.9424 14.4764 27.9805 14.5098 28.0208C14.5385 28.0546 14.5638 28.0911 14.5854 28.1298L14.858 27.8168L14.5591 27.4933Z" fill="white"/>
<path d="M24.4605 19.9025C24.1369 19.3468 23.6393 18.9547 22.9976 18.9073L22.6195 19.498C22.2191 20.2302 22.0138 21.0531 22.0235 21.8876L22.092 28.0627L21.6384 28.2508C20.3636 28.7987 19.0312 29.2016 17.6664 29.4517C16.9544 28.8875 16.0692 28.5868 15.1608 28.6007L15.4984 29.2284C14.8602 29.6381 13.4166 28.9014 13.4166 28.9014C13.3111 29.8016 13.8931 30.7353 14.6668 31.2083C15.4404 31.6813 22.8235 30.9867 24.3884 29.9775C25.4187 29.3111 25.1743 22.9443 25.1743 22.9443C25.2459 21.8818 24.9973 20.8222 24.4605 19.9025Z" fill="#FFA8A7"/>
<path d="M11.8517 27.0375C11.8025 27.2807 11.7748 27.5279 11.769 27.776C11.825 28.3677 12.0754 28.9242 12.4812 29.3584C12.5648 29.4534 12.6696 29.5275 12.7871 29.5747C12.8454 29.5975 12.9088 29.6043 12.9706 29.5944C13.0324 29.5845 13.0905 29.5583 13.1388 29.5184C13.2256 29.4142 13.2701 29.2812 13.2636 29.1457C13.2815 28.9459 13.2703 28.7445 13.2302 28.5479C13.1879 28.3503 13.0762 28.1744 12.9155 28.052C12.7896 27.9771 12.6549 27.9181 12.5146 27.8762C12.3798 27.8169 12.2597 27.7287 12.1629 27.6177L11.8517 27.0375Z" fill="#FFA8A7"/>
<path d="M22.9975 18.9111C24.7716 19.0781 25.758 20.3089 25.322 25.7456C24.0595 26.5632 21.8335 25.8669 21.8335 25.8669C21.4537 19.9115 22.419 19.2575 22.9975 18.9111Z" fill="#6C9FF5"/>
<path opacity="0.1" d="M22.9975 18.9111C24.7716 19.0781 25.758 20.3089 25.322 25.7456C24.0595 26.5632 21.8335 25.8669 21.8335 25.8669C21.4537 19.9115 22.419 19.2575 22.9975 18.9111Z" fill="white"/>
<path d="M16.5728 31.277C16.5728 31.277 16.5728 31.277 16.5728 31.2665C16.5728 31.2559 16.5728 31.2665 16.5728 31.2577C16.5728 31.2489 16.5728 31.2577 16.5728 31.2471C16.572 31.2437 16.572 31.2401 16.5728 31.2366V31.226L14.5841 27.5336V27.5248V27.5125V27.502C14.5838 27.4979 14.5838 27.4938 14.5841 27.4897L14.5754 27.4791L14.5666 27.4668L14.5578 27.4545V27.4422L14.549 27.4316L14.5402 27.4211V27.4123L14.5103 27.3859H14.4997H14.491H14.4804H14.4681H14.4558L14.4417 27.3771L12.1559 26.0918H12.1436H12.1296H12.1173H12.105H12.0926H12.0803H12.0698H12.0575H12.0452H12.003C11.9964 26.0914 11.9899 26.0924 11.9838 26.0949C11.9777 26.0973 11.9723 26.1011 11.9678 26.1059L11.6953 26.4171C11.6724 26.4329 11.6707 26.4699 11.7041 26.5314L13.6909 30.2238C13.8023 30.3956 13.953 30.5385 14.1305 30.6405L16.4163 31.9258C16.5359 31.9927 16.6062 31.9944 16.615 31.9452C16.6169 31.9521 16.6169 31.9594 16.615 31.9663L16.8875 31.6551C16.8885 31.6504 16.8885 31.6456 16.8875 31.641C16.8884 31.6363 16.8884 31.6316 16.8875 31.6269C16.8875 31.6269 16.5728 31.2805 16.5728 31.277ZM11.4192 26.0567C11.4192 26.0567 11.4192 26.0567 11.435 26.0567C11.4298 26.0563 11.4245 26.0563 11.4192 26.0567ZM16.2932 31.5847C16.2916 31.5584 16.2831 31.5329 16.2686 31.5109C16.2812 31.5314 16.2901 31.5541 16.295 31.5777C16.295 31.5777 16.2985 31.5882 16.2985 31.5918L16.2932 31.5847Z" fill="#455A64"/>
</svg>
