<svg width="36" height="37" viewBox="0 0 36 37" fill="none" xmlns="http://www.w3.org/2000/svg">
<g clip-path="url(#clip0_1_52)">
<g clip-path="url(#clip1_1_52)">
<path d="M8.46302 30.7698H11.6455C11.9388 30.7698 12.1588 30.8579 12.3788 31.0777L14.6374 33.3216C16.4853 35.1843 18.2012 35.1696 20.0491 33.3216L22.3076 31.0777C22.5423 30.8579 22.7476 30.7698 23.0556 30.7698H26.2233C28.8487 30.7698 30.0659 29.5671 30.0659 26.9272V23.7595C30.0659 23.4515 30.154 23.2462 30.3738 23.0116L32.6177 20.753C34.4804 18.9051 34.4657 17.1892 32.6177 15.3413L30.3738 13.0827C30.154 12.8627 30.0659 12.6427 30.0659 12.3494V9.16693C30.0659 6.55639 28.8632 5.32445 26.2233 5.32445H23.0556C22.7476 5.32445 22.5423 5.25113 22.3076 5.03112L20.0491 2.78725C18.2012 0.924676 16.4853 0.939342 14.6374 2.78725L12.3788 5.03112C12.1588 5.25113 11.9388 5.32445 11.6455 5.32445H8.46302C5.83782 5.32445 4.62054 6.52705 4.62054 9.16693V12.3494C4.62054 12.6427 4.54723 12.8627 4.32722 13.0827L2.08334 15.3413C0.220773 17.1892 0.235438 18.9051 2.08334 20.753L4.32722 23.0116C4.54723 23.2462 4.62054 23.4515 4.62054 23.7595V26.9272C4.62054 29.5526 5.83782 30.7698 8.46302 30.7698Z" fill="#FF8174"/>
<path d="M15.7082 25.2113C15.2096 25.2113 14.7989 25.0206 14.4176 24.5073L10.7365 19.9902C10.5165 19.6969 10.3845 19.3596 10.3845 19.037C10.3845 18.3623 10.8978 17.8197 11.5724 17.8197C11.9831 17.8197 12.3057 17.9663 12.6724 18.4503L15.6496 22.2928L21.9119 12.232C22.1905 11.7773 22.5719 11.5573 22.9679 11.5573C23.5985 11.5573 24.1998 11.9973 24.1998 12.6719C24.1998 13.0092 24.0091 13.3466 23.8331 13.6399L16.9402 24.5073C16.6322 24.9766 16.2069 25.2113 15.7082 25.2113Z" fill="white"/>
</g>
</g>
<defs>
<clipPath id="clip0_1_52">
<rect width="35.0418" height="35.0418" fill="white" transform="translate(0.156006 0.985077)"/>
</clipPath>
<clipPath id="clip1_1_52">
<rect width="33.3172" height="33.332" fill="white" transform="translate(0.69191 1.39581)"/>
</clipPath>
</defs>
</svg>
