<svg width="33" height="33" viewBox="0 0 33 33" fill="none" xmlns="http://www.w3.org/2000/svg">
<mask id="mask0_1_21" style="mask-type:alpha" maskUnits="userSpaceOnUse" x="0" y="0" width="33" height="33">
<rect x="0.87793" y="0.599976" width="31.8" height="31.8" fill="#D9D9D9"/>
</mask>
<g mask="url(#mask0_1_21)">
</g>
<g clip-path="url(#clip0_1_21)">
<rect width="23.9743" height="24.2071" transform="translate(4.85297 4.57501)" fill="white"/>
<path d="M5.27759 14.4504C5.27759 19.9005 9.70288 24.3102 15.153 24.3102C17.2492 24.3102 19.1746 23.6581 20.7739 22.5402L26.5501 28.3319C26.8762 28.6424 27.2799 28.7821 27.6991 28.7821C28.5997 28.7821 29.2519 28.0989 29.2519 27.1983C29.2519 26.7636 29.0809 26.3754 28.817 26.0804L23.0719 20.3197C24.2986 18.6738 25.0128 16.6553 25.0128 14.4504C25.0128 9.0003 20.6031 4.57501 15.153 4.57501C9.70288 4.57501 5.27759 9.0003 5.27759 14.4504ZM7.6688 14.4504C7.6688 10.3046 11.0072 6.96623 15.153 6.96623C19.2832 6.96623 22.6372 10.3046 22.6372 14.4504C22.6372 18.5807 19.2832 21.9346 15.153 21.9346C11.0072 21.9346 7.6688 18.5807 7.6688 14.4504Z" fill="#FF8174"/>
</g>
<defs>
<clipPath id="clip0_1_21">
<rect width="23.9743" height="24.2071" fill="white" transform="translate(4.85297 4.57501)"/>
</clipPath>
</defs>
</svg>
