<svg width="45" height="45" viewBox="0 0 45 45" fill="none" xmlns="http://www.w3.org/2000/svg">
<circle cx="22.2222" cy="22.4815" r="22.2222" fill="white"/>
<mask id="mask0_1_234" style="mask-type:alpha" maskUnits="userSpaceOnUse" x="5" y="5" width="34" height="35">
<rect x="5.55554" y="5.81482" width="33.3333" height="33.3333" fill="#D9D9D9"/>
</mask>
<g mask="url(#mask0_1_234)">
</g>
<g clip-path="url(#clip0_1_234)">
<path d="M9.72223 22.5249C9.72223 22.883 9.88499 23.2248 10.178 23.5015L18.5764 31.8836C18.8694 32.1604 19.1949 32.2905 19.5367 32.2905C20.2528 32.2905 20.8062 31.7534 20.8062 31.0209C20.8062 30.6791 20.6923 30.3373 20.4481 30.1096L18.202 27.7821L12.7007 22.8342L12.4078 23.534L16.7372 23.8433H32.1018C32.8668 23.8433 33.4039 23.2899 33.4039 22.5249C33.4039 21.7599 32.8668 21.2065 32.1018 21.2065H16.7372L12.4078 21.5158L12.7007 22.2319L18.202 17.2677L20.4481 14.9403C20.6923 14.7124 20.8062 14.3706 20.8062 14.0288C20.8062 13.2964 20.2528 12.7593 19.5367 12.7593C19.1949 12.7593 18.8694 12.8895 18.5764 13.1662L10.178 21.5483C9.88499 21.825 9.72223 22.1668 9.72223 22.5249Z" fill="#FF8174"/>
</g>
<defs>
<clipPath id="clip0_1_234">
<rect width="23.6817" height="19.5475" fill="white" transform="translate(9.72223 12.7593)"/>
</clipPath>
</defs>
</svg>
