<svg width="54" height="53" viewBox="0 0 54 53" fill="none" xmlns="http://www.w3.org/2000/svg">
<circle cx="26.9792" cy="26.4815" r="26.4815" fill="white"/>
<g clip-path="url(#clip0_1_255)">
<path d="M10.4283 22.0292C10.4283 28.7194 16.3787 35.2996 25.7793 40.9533C26.1293 41.1574 26.6292 41.3773 26.9793 41.3773C27.3293 41.3773 27.8294 41.1574 28.1961 40.9533C37.5798 35.2996 43.5302 28.7194 43.5302 22.0292C43.5302 16.4698 39.48 12.5436 34.0797 12.5436C30.9961 12.5436 28.496 13.9256 26.9793 16.0458C25.4959 13.9413 22.9624 12.5436 19.8789 12.5436C14.4786 12.5436 10.4283 16.4698 10.4283 22.0292ZM13.1118 22.0292C13.1118 17.8518 15.9787 15.0721 19.8455 15.0721C22.9791 15.0721 24.7791 16.9095 25.8458 18.48C26.2959 19.1082 26.5793 19.2809 26.9793 19.2809C27.3794 19.2809 27.6294 19.0925 28.1127 18.48C29.2628 16.9409 30.9961 15.0721 34.113 15.0721C37.9799 15.0721 40.8467 17.8518 40.8467 22.0292C40.8467 27.8713 34.2963 34.1689 27.3293 38.5348C27.1626 38.6447 27.046 38.7232 26.9793 38.7232C26.9126 38.7232 26.7959 38.6447 26.6459 38.5348C19.6622 34.1689 13.1118 27.8713 13.1118 22.0292Z" fill="#FF8174"/>
</g>
<defs>
<clipPath id="clip0_1_255">
<rect width="33.1018" height="29.7917" fill="white" transform="translate(10.4283 11.5856)"/>
</clipPath>
</defs>
</svg>
