<svg width="25" height="25" viewBox="0 0 25 25" fill="none" xmlns="http://www.w3.org/2000/svg">
<path d="M19.0648 3.09259H5.06482C3.96025 3.09259 3.06482 3.98802 3.06482 5.09259V19.0926C3.06482 20.1972 3.96025 21.0926 5.06482 21.0926H19.0648C20.1694 21.0926 21.0648 20.1972 21.0648 19.0926V5.09259C21.0648 3.98802 20.1694 3.09259 19.0648 3.09259Z" stroke="#FF8174" stroke-width="1.6331" stroke-linecap="round" stroke-linejoin="round"/>
<path d="M8.56482 10.0925C9.39325 10.0925 10.0648 9.42096 10.0648 8.59253C10.0648 7.7641 9.39325 7.09253 8.56482 7.09253C7.73639 7.09253 7.06482 7.7641 7.06482 8.59253C7.06482 9.42096 7.73639 10.0925 8.56482 10.0925Z" stroke="#FF8174" stroke-width="1.6331" stroke-linecap="round" stroke-linejoin="round"/>
<path d="M21.0648 15.0925L16.0648 10.0925L5.06482 21.0925" stroke="#FF8174" stroke-width="1.6331" stroke-linecap="round" stroke-linejoin="round"/>
</svg>
