<svg width="54" height="53" viewBox="0 0 54 53" fill="none" xmlns="http://www.w3.org/2000/svg">
<circle cx="27.0163" cy="26.4815" r="26.4815" fill="white"/>
<g clip-path="url(#clip0_1_244)">
<path d="M19.8224 41.9835H35.8652C38.7883 41.9835 40.257 40.5288 40.257 37.6476V23.6889C40.257 20.8076 38.7883 19.353 35.8652 19.353H19.8224C16.8992 19.353 15.4306 20.8076 15.4306 23.6889V37.6476C15.4306 40.5288 16.8992 41.9835 19.8224 41.9835ZM17.6825 37.5217V23.8147C17.6825 22.3602 18.4517 21.6049 19.8504 21.6049H35.8231C37.2079 21.6049 38.0052 22.3602 38.0052 23.8147V37.5217C38.0052 38.9764 37.2079 39.7317 35.8231 39.7317H19.8504C18.4517 39.7317 17.6825 38.9764 17.6825 37.5217Z" fill="#FF8174"/>
<path d="M31.6552 29.9408V12.0658C31.6552 9.98183 29.9347 8.27545 27.8367 8.27545C25.7527 8.27545 24.0323 9.98183 24.0323 12.0658V29.9408C24.0323 32.0108 25.7527 33.7312 27.8367 33.7312C29.9347 33.7312 31.6552 32.0108 31.6552 29.9408Z" fill="white"/>
<path d="M27.8368 31.0316C28.4382 31.0316 28.9558 30.5281 28.9558 29.9406V15.5764L28.8718 13.4784L29.809 14.4714L31.9349 16.7373C32.1308 16.961 32.4105 17.0729 32.6902 17.0729C33.2637 17.0729 33.7113 16.6533 33.7113 16.0799C33.7113 15.7862 33.5853 15.5624 33.3756 15.3526L28.6481 10.7929C28.3683 10.5132 28.1305 10.4153 27.8368 10.4153C27.5572 10.4153 27.3194 10.5132 27.0256 10.7929L22.2981 15.3526C22.0883 15.5624 21.9764 15.7862 21.9764 16.0799C21.9764 16.6533 22.396 17.0729 22.9835 17.0729C23.2492 17.0729 23.5569 16.961 23.7527 16.7373L25.8647 14.4714L26.8158 13.4784L26.7319 15.5764V29.9406C26.7319 30.5281 27.2354 31.0316 27.8368 31.0316Z" fill="#FF8174"/>
</g>
<defs>
<clipPath id="clip0_1_244">
<rect width="24.8264" height="37.9179" fill="white" transform="translate(15.4306 8.27545)"/>
</clipPath>
</defs>
</svg>
